<svg xmlns="http://www.w3.org/2000/svg" width="430" height="430" style="width:100%;height:100%;transform:translate3d(0,0,0);content-visibility:visible" viewBox="0 0 430 430"><defs><clipPath id="a"><path d="M0 0h430v430H0z"/></clipPath><clipPath id="d"><path d="M0 0h430v430H0z"/></clipPath><clipPath id="c"><path d="M0 0h430v430H0z"/></clipPath><clipPath id="b"><path d="M0 0h430v430H0z"/></clipPath></defs><g fill="none" clip-path="url(#a)"><g clip-path="url(#b)" style="display:none"><g style="display:none"><path class="primary"/><path class="primary"/><path class="primary"/></g><path class="secondary" style="display:none"/></g><g clip-path="url(#c)" style="display:block"><path stroke="#121331" stroke-linejoin="round" stroke-width="12" d="M-155-135c-16.569 0-30 13.431-30 30v210c0 16.569 13.431 30 30 30h310c16.569 0 30-13.431 30-30v-210c0-16.569-13.431-30-30-30h-310z" class="secondary" style="display:block" transform="translate(215 215)"/><path stroke="#08A88A" stroke-linecap="round" stroke-width="12" d="M281 215h30m30 0h-30m0 30v-30m0-30v30m-115 0h30m30 0h-30m0 30v-30m0-30v30m-131 0v-27.778C95 174.949 104.949 165 117.222 165H145c12.273 0 22.222 9.949 22.222 22.222v4.167m0 47.222v4.167c0 12.273-9.949 22.222-22.222 22.222h-27.778C104.949 265 95 255.051 95 242.778V215" class="primary" style="display:block"/><g style="display:none"><path class="primary"/><path class="primary"/><path class="primary"/></g></g><g clip-path="url(#d)" style="display:none"><path class="secondary" style="display:none"/><g style="display:none"><path class="primary"/><path class="primary"/><path class="primary"/></g></g></g></svg>